<?xml version="1.0" encoding="utf-8"?>
<!-- Generator: Adobe Illustrator 12.0.0, SVG Export Plug-In . SVG Version: 6.00 Build 51448)  -->
<!DOCTYPE svg PUBLIC "-//W3C//DTD SVG 1.1//EN" "http://www.w3.org/Graphics/SVG/1.1/DTD/svg11.dtd" [
	<!ENTITY ns_svg "http://www.w3.org/2000/svg">
	<!ENTITY ns_xlink "http://www.w3.org/1999/xlink">
]>
<svg  version="1.1" id="Layer_1" xmlns="&ns_svg;" xmlns:xlink="&ns_xlink;" width="138.665" height="174.655"
	 viewBox="0 0 138.665 174.655" overflow="visible" enable-background="new 0 0 138.665 174.655" xml:space="preserve">
<path fill="#3F2D3A" d="M43.69,73.574c42.447,22.72,44.908,57.224,53.869,96.343c-1.453-10.25-2.219-26.867-3.301-31.867
	c-3.668-21.855-18.521-49.477-5.369-70.065c-15.781,14.398-41.115-14.48-56.891,7.113C32,75.097,38.683,70.895,43.69,73.574z"/>
<path fill="#3F2D3A" d="M98.665,174.655c-0.375-1.566-0.742-3.148-1.107-4.734C97.817,171.724,98.161,173.351,98.665,174.655z"/>
<path fill="#3F2D3A" d="M56.683,26.864c2.032-5.5,5.219-19.553,0.282-24.396c14.523,5.176,34.656,20.96,29.258,38.851
	c11.375-8.286,32.078-2.854,40,5.334c-19.418,1.913-17.355,25.31-36.445,27.553c23.875,1.734,21.816-36.666,48.887-20.445
	c-9.197-11.893-25.344-21.395-47.111-17.777C86.927,16.965,65.878-7.527,47.112,2.208c3.952,0.844,8.357,1.188,8.888,8
	c0.782,3.376-1.616,12.014-3.554,16.89C33.364,18.294,14.496,32.01,0,38.655c22.784-7.704,25.778,23.405,47.112,27.554
	C31.26,57.52,28.564,44.141,15.248,34.24c20.804-6.75,38.979-4.624,49.642,9.748c-0.352-3.796-3.706-7.956-4.58-9.08
	C57.267,31.532,55.84,30.74,56.683,26.864z"/>
<g>
	<g>
		<g>
			<path fill="#3F2D3A" d="M72.001,30.654c-8.152,2.794-4.61,16.065,1.057,20.128C81.56,46.061,78.185,33.757,72.001,30.654"/>
		</g>
		<g>
			<path fill="#3F2D3A" d="M64.889,55.542C61.94,44.813,45.956,35.393,40,46.654C39.382,54.051,58.366,59.339,64.889,55.542z"/>
		</g>
		<g>
			<path fill="#3F2D3A" d="M68.446,62.654c0.802,3.93,8.051,5.93,10.666,2.666C83.29,55.883,68.082,51.977,68.446,62.654z"/>
		</g>
		<g>
			<path fill="#3F2D3A" d="M80.89,57.32c6.186,5.153,24.106-1.408,22.221-9.778C101.423,46.072,80.282,42.546,80.89,57.32z"/>
		</g>
	</g>
</g>
</svg>
